<?xml version="1.0" standalone="no"?><!DOCTYPE svg PUBLIC "-//W3C//DTD SVG 1.1//EN" "http://www.w3.org/Graphics/SVG/1.1/DTD/svg11.dtd"><svg t="1578115727629" class="icon" viewBox="0 0 1024 1024" version="1.1" xmlns="http://www.w3.org/2000/svg" p-id="1929" xmlns:xlink="http://www.w3.org/1999/xlink" width="200" height="200"><defs><style type="text/css"></style></defs><path d="M768 657.92a296.448 296.448 0 0 1-529.92-35.328l41.472 24.064a29.184 29.184 0 0 0 40.448-10.752 30.208 30.208 0 0 0-10.752-40.448L204.8 535.04a30.208 30.208 0 0 0-14.848-3.584h-4.096a30.72 30.72 0 0 0-22.016 16.384L102.4 651.776a29.696 29.696 0 0 0 51.2 29.696l25.6-44.544a358.4 358.4 0 0 0 288.256 224.768 358.4 358.4 0 0 0 136.192-9.216A352.256 352.256 0 0 0 819.2 687.616a29.696 29.696 0 0 0-51.2-29.696z m102.4-307.2l-23.552 40.96a347.648 347.648 0 0 0-37.376-75.776A354.816 354.816 0 0 0 689.664 204.8a354.304 354.304 0 0 0-270.336-36.352A372.224 372.224 0 0 0 296.96 225.792 358.4 358.4 0 0 0 204.8 331.264a29.696 29.696 0 0 0 51.2 29.696 297.472 297.472 0 0 1 536.576 51.2l-45.056-26.112a29.696 29.696 0 0 0-40.448 10.752 29.696 29.696 0 0 0 10.752 40.448l102.4 60.416a28.672 28.672 0 0 0 22.528 3.072h5.632l4.096-3.072L921.6 381.952a29.696 29.696 0 1 0-51.2-29.696z m0 0" p-id="1930" fill="#ffffff"></path></svg>