<?xml version="1.0" standalone="no"?>
<!DOCTYPE svg PUBLIC "-//W3C//DTD SVG 1.1//EN" "http://www.w3.org/Graphics/SVG/1.1/DTD/svg11.dtd" >
<!--
2013-9-30: Created.
-->
<svg>
<metadata>
Created by iconfont
</metadata>
<defs>

<font id="iconfont" horiz-adv-x="1024" >
  <font-face
    font-family="iconfont"
    font-weight="500"
    font-stretch="normal"
    units-per-em="1024"
    ascent="896"
    descent="-128"
  />
    <missing-glyph />
    
    <glyph glyph-name="sucai" unicode="&#59001;" d="M512-128a512 512 0 1 0 512 512 512 512 0 0 0-512-512z m0 930.909091a418.909091 418.909091 0 1 1 418.909091-418.909091 418.909091 418.909091 0 0 1-418.909091 418.909091z m162.909091-325.818182A69.818182 69.818182 0 1 0 744.727273 546.909091 69.818182 69.818182 0 0 0 674.909091 477.090909z m3.304727-155.136a145.361455 145.361455 0 0 1-3.351273 30.999273h3.351273a33.326545 33.326545 0 0 0 66.513455 0 28.439273 28.439273 0 0 0-1.908364-8.750546 183.575273 183.575273 0 0 0 1.908364-22.248727 233.285818 233.285818 0 0 0-465.454546 0 183.575273 183.575273 0 0 0 1.908364 22.248727 28.439273 28.439273 0 0 0-1.908364 8.750546 33.326545 33.326545 0 0 0 66.513455 0H349.090909a145.361455 145.361455 0 0 1-3.351273-30.999273 166.632727 166.632727 0 0 1 332.474182 0zM349.090909 477.090909A69.818182 69.818182 0 1 0 418.909091 546.909091 69.818182 69.818182 0 0 0 349.090909 477.090909z"  horiz-adv-x="1024" />

    
    <glyph glyph-name="cursor_huaban" unicode="&#58995;" d="M910.222222 384H512V782.222222H455.111111v-398.222222H56.888889v-56.888889h398.222222v-398.222222h56.888889v398.222222h398.222222V384zM540.444444-99.555556h-113.777777v398.222223h-398.222223v113.777777h398.222223v398.222223h113.777777v-398.222223h398.222223v-113.777777h-398.222223z m-56.888888 56.888889v398.222223zM910.222222 384H512V782.222222H455.111111v-398.222222H56.888889v-56.888889h398.222222v-398.222222h56.888889v398.222222h398.222222V384z"  horiz-adv-x="1024" />

    
    <glyph glyph-name="arrow" unicode="&#58994;" d="M512 896L393.846154 699.076923h236.307692L512 896zM512-128l-118.153846 196.923077h236.307692l-118.153846-196.923077z"  horiz-adv-x="1024" />

    
    <glyph glyph-name="xiguan" unicode="&#58990;" d="M900.551111 824.8888890000001a196.266667 196.266667 0 0 1-277.048889 0L522.808889 725.333333 439.182222 807.822222a28.444444 28.444444 0 0 1-39.822222 0 28.444444 28.444444 0 0 1 0-40.391111l113.777778-113.777778-398.222222-398.222222a149.617778 149.617778 0 0 1-40.391112-129.706667l-17.635555-21.048888A84.764444 84.764444 0 0 1 56.888889-14.222221999999988a84.195556 84.195556 0 0 1 118.897778 0l19.911111 19.911111A146.204444 146.204444 0 0 1 327.111111 42.66666699999996l398.222222 398.222222 105.244445-105.244445a29.013333 29.013333 0 0 1 22.755555-8.533333 27.875556 27.875556 0 0 1 19.911111 8.533333 28.444444 28.444444 0 0 1 0 40.391112L799.857778 446.577778l100.693333 100.693333a196.266667 196.266667 0 0 1 0 277.617778z m-613.262222-739.555556a92.728889 92.728889 0 0 0-92.728889-21.617777l-16.497778 5.688888-43.804444-43.804444a27.306667 27.306667 0 0 0-38.115556 0 26.737778 26.737778 0 0 0 0 38.115556l44.373334 44.373333-4.551112 15.928889A91.022222 91.022222 0 0 0 158.151111 213.33333300000004l398.222222 398.222223L682.666667 481.28z"  horiz-adv-x="1024" />

    
    <glyph glyph-name="many" unicode="&#58986;" d="M0-128h768V640H0zM64 576h640v-640H64zM520.96 256a22.4 22.4 0 0 1-16-6.4l-97.92-98.56V416a23.04 23.04 0 0 1-46.08 0v-264.96L263.04 249.6a22.4 22.4 0 0 1-16 6.4 23.68 23.68 0 0 1-16.64-6.4 24.32 24.32 0 0 1 0-32.64l137.6-136.96a22.4 22.4 0 0 1 32 0l137.6 136.96a24.32 24.32 0 0 1 0 32.64 23.68 23.68 0 0 1-16.64 6.4zM128 736a32 32 0 0 1 32-32H832v-672a32 32 0 0 1 64 0V768H160a32 32 0 0 1-32-32zM288 896a32 32 0 0 1-32-32 32 32 0 0 1 32-32H960v-672a32 32 0 0 1 64 0V896z"  horiz-adv-x="1024" />

    
    <glyph glyph-name="one" unicode="&#58987;" d="M0-128h960V832H0zM64 768h832v-832H64zM672 336a30.08 30.08 0 0 1-22.4-9.6L512 192V560a32 32 0 0 1-64 0V192L310.4 326.4a30.72 30.72 0 0 1-44.8 0 30.72 30.72 0 0 1 0-44.8l192-192a30.72 30.72 0 0 1 44.8 0l192 192a30.72 30.72 0 0 1 0 44.8 30.08 30.08 0 0 1-22.4 9.6z"  horiz-adv-x="1024" />

    
    <glyph glyph-name="rotate" unicode="&#58962;" d="M768 238.08a296.448 296.448 0 0 0-529.92 35.328l41.472-24.064a29.184 29.184 0 0 1 40.448 10.752 30.208 30.208 0 0 1-10.752 40.448L204.8 360.96a30.208 30.208 0 0 1-14.848 3.584h-4.096a30.72 30.72 0 0 1-22.016-16.384L102.4 244.224a29.696 29.696 0 0 1 51.2-29.696l25.6 44.544a358.4 358.4 0 0 1 288.256-224.768 358.4 358.4 0 0 1 136.192 9.216A352.256 352.256 0 0 1 819.2 208.384a29.696 29.696 0 0 1-51.2 29.696z m102.4 307.2l-23.552-40.96a347.648 347.648 0 0 1-37.376 75.776A354.816 354.816 0 0 1 689.664 691.2a354.304 354.304 0 0 1-270.336 36.352A372.224 372.224 0 0 1 296.96 670.208 358.4 358.4 0 0 1 204.8 564.736a29.696 29.696 0 0 1 51.2-29.696 297.472 297.472 0 0 0 536.576-51.2l-45.056 26.112a29.696 29.696 0 0 1-40.448-10.752 29.696 29.696 0 0 1 10.752-40.448l102.4-60.416a28.672 28.672 0 0 1 22.528-3.072h5.632l4.096 3.072L921.6 514.048a29.696 29.696 0 1 1-51.2 29.696z m0 0"  horiz-adv-x="1024" />

    
    <glyph glyph-name="closepx1" unicode="&#59468;" d="M160.170667 795.221333a45.226667 45.226667 0 0 1-4.949334 4.949334l-0.341333 0.341333v-0.085333A41.984 41.984 0 0 1 128 810.666667a42.666667 42.666667 0 0 1-42.666667-42.666667c0-10.325333 4.096-19.456 10.24-26.88l-1.024-0.938667 358.656-359.424c-2.304-0.938667-4.010667-2.56-6.058666-3.925333l-2.389334 2.389333-350.549333-348.928 2.133333-2.133333A42.496 42.496 0 0 1 85.333333 0a42.666667 42.666667 0 0 1 42.666667-42.666667 42.154667 42.154667 0 0 1 37.632 23.552l327.424 325.888a42.24 42.24 0 0 1 10.666667 10.666667l1.450666 1.365333-0.341333 0.341334c1.28 2.048 2.901333 3.754667 3.84 5.973333l354.304-355.072 1.621333 1.621333A42.069333 42.069333 0 0 1 896-42.666667a42.666667 42.666667 0 0 1 42.666667 42.666667 41.898667 41.898667 0 0 1-20.394667 35.498667L160.170667 795.221333zM640 469.333333a42.410667 42.410667 0 0 1 37.632 23.552l242.090667 240.554667a43.349333 43.349333 0 0 1 10.666666 10.581333l1.450667 1.450667-0.341333 0.341333A41.045333 41.045333 0 0 1 938.666667 768a42.666667 42.666667 0 0 1-42.666667 42.666667 40.874667 40.874667 0 0 1-22.186667-7.168l-2.304 2.304-265.301333-263.509334 2.218667-2.218666A41.813333 41.813333 0 0 1 597.333333 512a42.666667 42.666667 0 0 1 42.666667-42.666667z"  horiz-adv-x="1024" />

    
    <glyph glyph-name="save" unicode="&#58961;" d="M768 716.8H256A128 128 0 0 1 128 588.8v-460.8A128 128 0 0 1 256 0h512a128 128 0 0 1 128 128V588.8A128 128 0 0 1 768 716.8z m-102.4-60.416V460.8a25.6 25.6 0 0 0-25.6-25.6h-256a25.6 25.6 0 0 0-25.6 25.6V656.384zM844.8 128a76.8 76.8 0 0 0-76.8-76.8H256A76.8 76.8 0 0 0 179.2 128V588.8A76.8 76.8 0 0 0 256 665.6h51.2v-204.8A76.8 76.8 0 0 1 384 384h256A76.8 76.8 0 0 1 716.8 460.8v204.8h51.2A76.8 76.8 0 0 0 844.8 588.8zM460.8 588.8m26.112 0l50.176 0q26.112 0 26.112-26.112l0-50.176q0-26.112-26.112-26.112l-50.176 0q-26.112 0-26.112 26.112l0 50.176q0 26.112 26.112 26.112Z"  horiz-adv-x="1024" />

    
    <glyph glyph-name="circular" unicode="&#58955;" d="M512-104.727273A488.727273 488.727273 0 1 0 1000.727273 384 489.192727 489.192727 0 0 0 512-104.727273z m0 884.363637a395.636364 395.636364 0 1 1 395.636364-395.636364A396.101818 396.101818 0 0 1 512 779.636364z"  horiz-adv-x="1024" />

    
    <glyph glyph-name="Import" unicode="&#58956;" d="M850.432 614.4H368.128v48.128a51.2 51.2 0 0 1-51.2 54.272h-143.36A125.44 125.44 0 0 1 51.2 588.8v-512a125.44 125.44 0 0 1 122.368-128h676.864A125.44 125.44 0 0 1 972.8 76.8V486.4a125.44 125.44 0 0 1-122.368 128zM921.6 76.8a74.24 74.24 0 0 0-71.168-76.8H173.568A74.24 74.24 0 0 0 102.4 76.8V588.8a74.24 74.24 0 0 0 71.168 76.8l143.36-3.072v-48.128a51.2 51.2 0 0 1 51.2-51.2h483.328A74.24 74.24 0 0 0 921.6 486.4zM529.92 478.72a24.576 24.576 0 0 1-35.84 0l-153.6-153.6a24.576 24.576 0 0 1 0-35.84 24.576 24.576 0 0 1 35.84 0L486.4 398.848v-296.448a25.6 25.6 0 0 1 51.2 0V398.848l110.08-109.568a24.576 24.576 0 0 1 35.84 0 24.576 24.576 0 0 1 0 35.84z"  horiz-adv-x="1024" />

    
    <glyph glyph-name="rectangle" unicode="&#58957;" d="M884.363636-104.727273H139.636364a139.636364 139.636364 0 0 0-139.636364 139.636364v698.181818a139.636364 139.636364 0 0 0 139.636364 139.636364h744.727272a139.636364 139.636364 0 0 0 139.636364-139.636364v-698.181818a139.636364 139.636364 0 0 0-139.636364-139.636364zM139.636364 779.636364a46.545455 46.545455 0 0 1-46.545455-46.545455v-698.181818a46.545455 46.545455 0 0 1 46.545455-46.545455h744.727272a46.545455 46.545455 0 0 1 46.545455 46.545455v698.181818a46.545455 46.545455 0 0 1-46.545455 46.545455z"  horiz-adv-x="1024" />

    
    <glyph glyph-name="preview" unicode="&#58958;" d="M963.584 442.88C897.536 532.992 721.408 742.4 512 742.4S126.464 532.992 60.416 442.88a102.4 102.4 0 0 1 0-117.76C126.464 235.008 302.592 25.6 512 25.6s385.536 209.408 451.584 299.52a102.4 102.4 0 0 1 0 117.76zM921.6 355.328C860.672 271.872 697.856 76.8 512 76.8s-348.672 195.072-409.6 278.528a51.2 51.2 0 0 0 0 57.344C163.328 496.128 326.144 691.2 512 691.2s348.672-195.072 409.6-278.528a51.2 51.2 0 0 0 0-57.344zM512 588.8a204.8 204.8 0 1 1 204.8-204.8 204.8 204.8 0 0 1-204.8 204.8z m0-358.4a153.6 153.6 0 1 0 153.6 153.6 153.6 153.6 0 0 0-153.6-153.6z"  horiz-adv-x="1024" />

    
    <glyph glyph-name="Graphical" unicode="&#58959;" d="M884.363636 872.727273H139.636364a139.636364 139.636364 0 0 1-139.636364-139.636364v-698.181818a139.636364 139.636364 0 0 1 139.636364-139.636364h744.727272a139.636364 139.636364 0 0 1 139.636364 139.636364v698.181818a139.636364 139.636364 0 0 1-139.636364 139.636364z m46.545455-837.818182a46.545455 46.545455 0 0 0-46.545455-46.545455h-67.490909l-123.345454 288.116364a52.130909 52.130909 0 0 1-93.090909 5.12l-167.563637-293.236364H139.636364a46.545455 46.545455 0 0 0-46.545455 46.545455v698.181818a46.545455 46.545455 0 0 0 46.545455 46.545455h744.727272a46.545455 46.545455 0 0 0 46.545455-46.545455zM279.272727 570.181818m-93.090909 0a93.090909 93.090909 0 1 1 186.181818 0 93.090909 93.090909 0 1 1-186.181818 0Z"  horiz-adv-x="1024" />

    
    <glyph glyph-name="vague" unicode="&#58960;" d="M558.545455-128h-93.09091a334.196364 334.196364 0 0 0-325.818181 341.178182V360.727273c0 205.730909 308.596364 451.490909 343.970909 478.952727L512 862.021818l28.392727-22.341818C575.767273 812.218182 884.363636 566.458182 884.363636 360.727273v-147.549091A334.196364 334.196364 0 0 0 558.545455-128zM512 742.865455C413.789091 660.945455 232.727273 483.607273 232.727273 360.727273v-147.549091A241.105455 241.105455 0 0 1 465.454545-34.909091h93.09091a241.105455 241.105455 0 0 1 232.727272 248.087273V360.727273c0 122.88-181.061818 300.218182-279.272727 382.138182z"  horiz-adv-x="1024" />

    
    <glyph glyph-name="icon-test1" unicode="&#58953;" d="M224 448h576a32 32 0 0 1 32 19.84 30.08 30.08 0 0 1-7.04 34.56l-192 192a31.36 31.36 0 0 1-44.8-44.8L722.56 512H224a32 32 0 0 1 0-64zM800 256h-576a32 32 0 0 1-29.44-19.84 30.08 30.08 0 0 1 7.04-34.56l192-192a30.72 30.72 0 0 1 44.8 0 30.72 30.72 0 0 1 0 44.8L301.44 192h498.56a32 32 0 0 1 0 64z"  horiz-adv-x="1024" />

    
    <glyph glyph-name="moren" unicode="&#58952;" d="M103.408485 896h479.418182l389.430303-333.575758V-65.939394a62.060606 62.060606 0 0 0-62.060606-62.060606h-806.787879a62.060606 62.060606 0 0 0-62.060606 62.060606V833.939394a62.060606 62.060606 0 0 0 62.060606 62.060606zM601.910303 895.488l380.741818-341.891879H601.553455zM585.69697 336.430545l-62.43297-64.09309a7.090424 7.090424 0 0 0-0.667152-1.008485 8.316121 8.316121 0 0 0-11.279515 0 9.69697 9.69697 0 0 0-0.620606 0.930909l-64.170666 64.170666a7.757576 7.757576 0 0 0 10.984727 10.969213l50.843151-50.858667V479.992242a7.757576 7.757576 0 0 0 15.515152 0v-184.800969l50.843151 52.208485a7.757576 7.757576 0 0 0 10.984728-10.969213zM445.827879 166.787879h141.653333l44.99394-93.090909h-232.727273z"  horiz-adv-x="1024" />

    
    <glyph glyph-name="suspend" unicode="&#58943;" d="M576 704m64 0l0 0q64 0 64-64l0-512q0-64-64-64l0 0q-64 0-64 64l0 512q0 64 64 64ZM256 704m64 0l0 0q64 0 64-64l0-512q0-64-64-64l0 0q-64 0-64 64l0 512q0 64 64 64Z"  horiz-adv-x="1024" />

    
    <glyph glyph-name="play" unicode="&#58944;" d="M357.76 698.88a23.04 23.04 0 0 1-37.76-17.28v-595.2a23.04 23.04 0 0 1 37.76-17.28l338.56 297.6a23.04 23.04 0 0 1 0 34.56z"  horiz-adv-x="1024" />

    
    <glyph glyph-name="leftplay" unicode="&#58945;" d="M286.08 704a32 32 0 0 0 32-32v-576a32 32 0 0 0-32-32 32 32 0 0 0-32 32v576a32 32 0 0 0 32 32zM730.24 698.88a23.04 23.04 0 0 0 37.76-17.28v-595.2a23.04 23.04 0 0 0-37.76-17.28L391.68 366.72a23.04 23.04 0 0 0 0 34.56z"  horiz-adv-x="1024" />

    
    <glyph glyph-name="rightplay" unicode="&#58946;" d="M736 704a32 32 0 0 1-32-32v-576a32 32 0 0 1 64 0v576a32 32 0 0 1-32 32zM291.84 698.88a23.04 23.04 0 0 1-35.84-17.28v-595.2a23.04 23.04 0 0 1 37.76-17.28l336.64 297.6a23.04 23.04 0 0 1 0 34.56z"  horiz-adv-x="1024" />

    
    <glyph glyph-name="narrow" unicode="&#58950;" d="M800 384h-576a32 32 0 0 0 0 64h576a32 32 0 0 0 0-64z"  horiz-adv-x="1024" />

    
    <glyph glyph-name="enlarge" unicode="&#58951;" d="M800 448h-256V704a32 32 0 0 1-64 0v-256h-256a32 32 0 0 1 0-64h256v-256a32 32 0 0 1 64 0V384h256a32 32 0 0 1 0 64z"  horiz-adv-x="1024" />

    
    <glyph glyph-name="text" unicode="&#58949;" d="M56.888889 782.222222v-170.666666h56.888889V725.333333h341.333333v-739.555555H227.555556v-56.888889h568.888888v56.888889h-227.555555V725.333333h341.333333v-113.777777h56.888889V782.222222H56.888889z"  horiz-adv-x="1024" />

    
    <glyph glyph-name="close" unicode="&#58947;" d="M587.52 320l300.16 330.24a32 32 0 0 1 0 45.44 32.64 32.64 0 0 1-45.44 0L544 367.36l-296.32 326.4a32.64 32.64 0 0 1-45.44 0 32 32 0 0 1 0-45.44L500.48 320l-300.16-330.24a32 32 0 0 1 23.68-53.76 31.36 31.36 0 0 1 23.68 10.24l296.32 326.4 296.32-326.4a31.36 31.36 0 0 1 23.68-10.24 32 32 0 0 1 23.68 53.76z"  horiz-adv-x="1024" />

    
    <glyph glyph-name="icon-test" unicode="&#58941;" d="M192 339.84a32 32 0 0 0 0 24.32 23.04 23.04 0 0 0 7.04 10.24l256 256a31.36 31.36 0 0 0 44.8-44.8L301.44 384h498.56a32 32 0 0 0 0-64H301.44l200.96-201.6a30.72 30.72 0 0 0 0-44.8 30.72 30.72 0 0 0-44.8 0l-256 256A23.04 23.04 0 0 0 192 339.84z"  horiz-adv-x="1024" />

    
    <glyph glyph-name="icon-test2" unicode="&#58942;" d="M832 339.84a32 32 0 0 1 0 24.32 23.04 23.04 0 0 1-7.04 10.24l-256 256a31.36 31.36 0 0 1-44.8-44.8L722.56 384H224a32 32 0 0 1 0-64h498.56l-200.96-201.6a30.72 30.72 0 0 1 0-44.8 30.72 30.72 0 0 1 44.8 0l256 256a23.04 23.04 0 0 1 9.6 10.24z"  horiz-adv-x="1024" />

    
    <glyph glyph-name="retract" unicode="&#58936;" d="M822.4 566.4a30.72 30.72 0 0 1-44.8 0L480 269.44 182.4 566.4a31.36 31.36 0 0 1-44.8-44.8l320-320a30.72 30.72 0 0 1 44.8 0l320 320a30.72 30.72 0 0 1 0 44.8z"  horiz-adv-x="1024" />

    
    <glyph glyph-name="open" unicode="&#58938;" d="M822.4 201.6a30.72 30.72 0 0 0-44.8 0L480 498.56l-297.6-296.96a31.36 31.36 0 0 0-44.8 44.8l320 320a30.72 30.72 0 0 0 44.8 0l320-320a30.72 30.72 0 0 0 0-44.8z"  horiz-adv-x="1024" />

    
    <glyph glyph-name="del" unicode="&#58937;" d="M409.6 704.853333h204.8a17.066667 17.066667 0 0 1 0 34.133334h-204.8a17.066667 17.066667 0 0 1 0-34.133334zM887.466667 664.234667H136.533333a17.066667 17.066667 0 0 1-17.066666-17.066667 17.066667 17.066667 0 0 1 17.066666-17.066667h109.226667V42.66666699999996a65.194667 65.194667 0 0 1 65.194667-65.194667h414.378666A65.194667 65.194667 0 0 1 790.528 42.66666699999996V630.1013330000001H887.466667a17.408 17.408 0 0 1 17.066666 17.066667 17.066667 17.066667 0 0 1-17.066666 17.066667zM756.394667 42.66666699999996a31.061333 31.061333 0 0 0-31.061334-31.061334H309.589333a31.061333 31.061333 0 0 0-31.061333 31.061334V626.0053330000001h477.866667zM450.218667 198.65599999999995a17.408 17.408 0 0 1 17.066666 17.066667v204.8a17.066667 17.066667 0 0 1-17.066666 17.066666 17.066667 17.066667 0 0 1-17.066667-17.066666v-204.8a17.066667 17.066667 0 0 1 17.066667-17.066667zM580.266667 198.65599999999995a17.066667 17.066667 0 0 1 17.066666 17.066667v204.8a17.066667 17.066667 0 0 1-17.066666 17.066666 17.066667 17.066667 0 0 1-17.066667-17.066666v-204.8a17.408 17.408 0 0 1 17.066667-17.066667z"  horiz-adv-x="1024" />

    
    <glyph glyph-name="error" unicode="&#58933;" d="M512.000169 896a512 512 0 1 1 512-511.948749 512 512 0 0 1-512 511.948749z m0.307508-975.003804a461.978779 461.978779 0 1 0 461.978779 461.978779 461.978779 461.978779 0 0 0-461.978779-461.978779z m194.754755 652.633434a45.101101 45.101101 0 0 1-63.654054 0L514.408978 444.732733 384.999569 574.193393a44.998599 44.998599 0 1 1-63.654054-63.602802l129.819419-128.948149-128.999399-128.896896a44.998599 44.998599 0 0 1 63.602803-63.602803l128.64064 129.306907 128.845646-128.128128a43.768569 43.768569 0 0 1 62.629029-0.973774 44.947347 44.947347 0 0 1 0 63.602803l-128.435636 128.691891 128.58939 129.358159a43.871071 43.871071 0 0 1 1.076276 62.629029z"  horiz-adv-x="1024" />

    
    <glyph glyph-name="tips" unicode="&#58934;" d="M511.927024 896a512 512 0 1 1 512.036551-512A512.036551 512.036551 0 0 1 511.927024 896z m-0.328955-987.449457a475.559109 475.559109 0 1 0 475.559109 475.559109 475.59566 475.59566 0 0 0-475.559109-475.559109z m-0.219303 258.119931a38.195317 38.195317 0 1 1 38.231868-38.195317 38.195317 38.195317 0 0 1-38.231868 38.195317z m1.973729 509.880069a37.0257 37.0257 0 0 1-36.550542-38.633924v-363.12964a36.696745 36.696745 0 1 1 73.356939 0V637.9166190000001a36.989149 36.989149 0 0 1-36.806397 38.633924z"  horiz-adv-x="1024" />

    
    <glyph glyph-name="file" unicode="&#58926;" d="M494.823091 893.003305h-409.304716A84.857638 84.857638 0 0 1 0.002926 807.634035v-847.845482a84.930729 84.930729 0 0 1 85.515449-85.44236h999.872949a84.492188 84.492188 0 0 1 85.51545 85.44236V663.573393a84.419098 84.419098 0 0 1-85.51545 85.36927H614.690901a61.468798 61.468798 0 0 0-34.35236 57.0103v1.754163A85.95399 85.95399 0 0 1 494.823091 893.076395M1083.929522 678.264509a15.933648 15.933648 0 0 0 16.810729-17.10309v-699.180163a15.933648 15.933648 0 0 0-16.810729-17.10309H87.711079a15.933648 15.933648 0 0 0-16.810729 17.10309V679.141591c260.931756 0 1013.029172-0.877082 1013.029172-0.877082zM494.823091 895.342189h-409.304716A84.930729 84.930729 0 0 1 0.002926 809.899829v-852.450161a84.857638 84.857638 0 0 1 85.515449-85.442359h999.872949a84.419098 84.419098 0 0 1 85.51545 85.442359v706.050635a84.419098 84.419098 0 0 1-85.51545 85.36927H614.690901a65.123304 65.123304 0 0 0-34.35236 59.349183v1.681073A85.95399 85.95399 0 0 1 494.823091 895.342189"  horiz-adv-x="1171" />

    
    <glyph glyph-name="file_sel" unicode="&#58927;" d="M494.823091 893.003305h-409.304716A84.857638 84.857638 0 0 1 0.002926 807.634035v-847.845482a84.930729 84.930729 0 0 1 85.515449-85.44236h999.872949a84.492188 84.492188 0 0 1 85.51545 85.44236V663.573393a84.419098 84.419098 0 0 1-85.51545 85.36927H614.690901a61.468798 61.468798 0 0 0-34.35236 57.0103v1.754163A85.95399 85.95399 0 0 1 494.823091 893.076395M1083.929522 678.264509a15.933648 15.933648 0 0 0 16.810729-17.10309v-699.180163a15.933648 15.933648 0 0 0-16.810729-17.10309H87.711079a15.933648 15.933648 0 0 0-16.810729 17.10309V679.141591c260.931756 0 1013.029172-0.877082 1013.029172-0.877082zM494.823091 895.342189h-409.304716A84.930729 84.930729 0 0 1 0.002926 809.899829v-852.450161a84.857638 84.857638 0 0 1 85.515449-85.442359h999.872949a84.419098 84.419098 0 0 1 85.51545 85.442359v706.050635a84.419098 84.419098 0 0 1-85.51545 85.36927H614.690901a65.123304 65.123304 0 0 0-34.35236 59.349183v1.681073A85.95399 85.95399 0 0 1 494.823091 895.342189"  horiz-adv-x="1171" />

    
    <glyph glyph-name="success" unicode="&#58929;" d="M512.000128 895.974413A512.025587 512.025587 0 1 1 1024.000128 384 512.025587 512.025587 0 0 1 512.000128 895.974413z m-0.255872-987.512644A475.589405 475.589405 0 1 0 987.154551 384a475.589405 475.589405 0 0 0-475.410295-475.538231z m202.906547 647.049275L441.891182 244.95911999999998l-126.656671 128.652474a33.954223 33.954223 0 0 1-51.174413-44.649675l146.102948-149.096652a43.037681 43.037681 0 0 1 72.667667 9.723139l280.17991 318.023388a34.030985 34.030985 0 0 1-48.35982 47.822489z"  horiz-adv-x="1024" />

    


  </font>
</defs>
</svg>
